# Blender v2.79 (sub 0) OBJ File: 'StylisedProps.blend'
# www.blender.org
mtllib Rock2Low.mtl
o 2_Group57697.002
v -0.173230 -0.030356 0.427353
v -0.110791 -0.032033 -0.661300
v 0.533096 -0.024012 0.306664
v -0.564282 0.392660 -0.540050
v -0.693500 0.337129 0.159912
v -0.329189 0.559065 -0.172729
v 0.576706 0.084008 -0.376195
v 0.524572 -0.028912 -0.028541
v 0.299135 -0.031021 -0.379934
v 0.494977 0.211910 0.533087
v 0.218127 0.472678 0.523222
v 0.299074 0.082549 0.517614
v 0.644815 0.303613 0.346288
v -0.252711 0.457566 -0.562899
v -0.308395 0.546452 -0.351422
v -0.468483 0.120839 -0.803050
v -0.810197 -0.035654 -0.114503
v -0.763542 0.149251 -0.668344
v -0.419535 -0.035440 -0.710381
v 0.468204 0.771754 -0.021848
v 0.211648 0.775278 -0.047547
v 0.301746 0.776590 0.132837
v -0.438646 0.482888 0.285106
v -0.084589 0.696271 0.337891
v -0.572860 -0.022996 0.381701
v -0.628295 0.244063 0.448569
v -0.303480 0.438383 0.460103
v -0.080021 0.175864 -0.766739
v 0.469149 0.488703 -0.472309
v 0.657408 0.388347 0.205331
v 0.659596 0.173573 0.371172
v 0.691042 0.130461 -0.205429
v 0.263427 0.667226 -0.360842
v 0.693703 0.572496 -0.116469
v -0.909919 0.116001 -0.242659
v -0.735860 -0.031360 0.224775
v -0.920610 0.121686 0.044445
v 0.586131 0.113690 0.440071
v -0.562445 0.118786 0.459008
v -0.863420 0.138206 0.197554
v 0.250093 0.098285 -0.575777
v 0.551012 0.564050 0.363475
v 0.554942 0.670187 0.088299
v 0.194596 0.734057 0.325746
v -0.022163 0.546381 0.505868
v -0.062275 0.582206 -0.447882
v 0.260486 -0.030684 0.428794
v 0.024579 0.745152 -0.076207
v 0.659742 0.041328 0.155009
v -0.087544 0.436872 -0.564686
vt 0.616722 0.551800
vt 0.392299 0.564474
vt 0.575486 0.409957
vt 0.309049 0.785665
vt 0.263641 0.891990
vt 0.242813 0.809582
vt 0.112587 0.678353
vt 0.018604 0.693427
vt 0.138681 0.611553
vt 0.078490 0.836139
vt 0.127535 0.847084
vt 0.063108 0.879086
vt 0.086979 0.802861
vt 0.270249 0.751508
vt 0.256365 0.785581
vt 0.351449 0.730293
vt 0.405819 0.923361
vt 0.360925 0.787968
vt 0.405819 0.695444
vt 0.153473 0.779406
vt 0.174887 0.788428
vt 0.158687 0.799016
vt 0.520620 0.694953
vt 0.616722 0.634728
vt 0.217618 0.872410
vt 0.224842 0.927893
vt 0.185038 0.881354
vt 0.282085 0.674390
vt 0.167625 0.727764
vt 0.100876 0.786838
vt 0.068056 0.803447
vt 0.090926 0.709066
vt 0.183397 0.757153
vt 0.133634 0.759302
vt 0.351722 0.869609
vt 0.291651 0.994385
vt 0.321906 0.920044
vt 0.057939 0.819824
vt 0.007856 0.807941
vt 0.211338 0.949763
vt 0.290380 0.934850
vt 0.217780 0.987847
vt 0.129371 0.948236
vt 0.195761 0.668513
vt 0.125094 0.805026
vt 0.138235 0.783517
vt 0.176641 0.837754
vt 0.155552 0.820198
vt 0.320559 0.593111
vt 0.158367 0.853414
vt 0.224554 0.758594
vt 0.040026 0.900985
vt 0.193549 0.795539
vt 0.049276 0.763045
vt 0.440333 0.473937
vt 0.507026 0.419544
vt 0.246886 0.732686
vt 0.588378 0.671808
vt 0.389456 0.628858
vt 0.606898 0.462937
vn -0.0488 -0.8383 0.5430
vn 0.1715 -0.8390 -0.5163
vn 0.3695 -0.8815 0.2940
vn -0.4515 0.7889 -0.4168
vn -0.6325 0.7594 0.1522
vn -0.4381 0.8935 -0.0989
vn 0.6568 -0.4803 -0.5813
vn 0.3127 -0.9465 -0.0792
vn 0.2087 -0.9379 -0.2770
vn 0.3945 0.0327 0.9183
vn 0.1314 0.2923 0.9472
vn 0.0787 -0.3961 0.9148
vn 0.7783 0.4201 0.4667
vn -0.0344 0.8004 -0.5984
vn -0.0091 0.9861 -0.1656
vn -0.1912 0.0083 -0.9815
vn -0.4722 -0.8805 -0.0418
vn -0.7644 -0.0169 -0.6445
vn -0.1087 -0.8412 -0.5297
vn 0.3877 0.9202 -0.0534
vn -0.0771 0.9863 -0.1457
vn 0.1290 0.9695 0.2084
vn -0.2940 -0.7837 0.5471
vn -0.5187 0.8076 0.2805
vn -0.5416 0.2741 0.7947
vn -0.3067 0.4097 0.8591
vn 0.2158 0.0657 -0.9742
vn 0.5155 0.3988 -0.7584
vn 0.9284 0.2315 0.2905
vn 0.8997 -0.1191 0.4199
vn 0.9043 -0.3335 -0.2665
vn 0.1022 0.8191 -0.5644
vn 0.8772 0.4457 -0.1785
vn -0.9797 0.0435 -0.1956
vn -0.4384 -0.8253 0.3558
vn -0.9901 0.0544 0.1292
vn 0.5913 -0.4609 0.6617
vn -0.3195 -0.2424 0.9160
vn -0.8764 0.0798 0.4748
vn 0.4919 -0.3212 -0.8092
vn 0.6566 0.3093 0.6878
vn 0.6658 0.6891 0.2860
vn -0.3288 0.8686 0.3707
vn 0.0842 0.8657 0.4935
vn -0.1299 0.3667 0.9212
vn -0.2792 0.7486 -0.6014
vn 0.0919 -0.8952 0.4360
vn -0.2652 0.9519 -0.1535
vn 0.8199 -0.5679 0.0719
vn 0.0178 0.6939 -0.7198
usemtl None
s 1
f 1/1/1 2/2/2 3/3/3
f 4/4/4 5/5/5 6/6/6
f 7/7/7 8/8/8 9/9/9
f 10/10/10 11/11/11 12/12/12
f 11/11/11 10/10/10 13/13/13
f 14/14/14 4/4/4 15/15/15
f 14/14/14 16/16/16 4/4/4
f 17/17/17 18/18/18 19/19/19
f 20/20/20 21/21/21 22/22/22
f 17/23/17 2/2/2 25/24/23
f 23/25/24 26/26/25 27/27/26
f 28/28/27 29/29/28 7/7/7
f 30/30/29 31/31/30 32/32/31
f 20/20/20 33/33/32 21/21/21
f 32/32/31 29/29/28 34/34/33
f 35/35/34 18/18/18 17/17/17
f 36/36/35 37/37/36 17/17/17
f 38/38/37 12/12/12 3/39/3
f 39/40/38 40/41/39 36/36/35
f 27/27/26 26/26/25 12/12/12
f 2/2/2 1/1/1 25/24/23
f 39/40/38 25/42/23 1/43/1
f 18/18/18 16/16/16 19/19/19
f 41/44/40 28/28/27 7/7/7
f 18/18/18 4/4/4 16/16/16
f 35/35/34 4/4/4 18/18/18
f 40/41/39 26/26/25 5/5/5
f 4/4/4 37/37/36 5/5/5
f 34/34/33 30/30/29 32/32/31
f 42/45/41 30/30/29 43/46/42
f 11/11/11 30/30/29 42/45/41
f 42/45/41 43/46/42 22/22/22
f 27/27/26 24/47/43 23/25/24
f 42/45/41 44/48/44 11/11/11
f 28/28/27 16/16/16 14/14/14
f 28/28/27 2/49/2 16/16/16
f 45/50/45 11/11/11 44/48/44
f 11/11/11 27/27/26 12/12/12
f 46/51/46 29/29/28 28/28/27
f 20/20/20 29/29/28 33/33/32
f 39/40/38 1/43/1 12/12/12
f 12/12/12 47/52/47 3/39/3
f 34/34/33 29/29/28 20/20/20
f 43/46/42 30/30/29 34/34/33
f 35/35/34 37/37/36 4/4/4
f 35/35/34 17/17/17 37/37/36
f 7/7/7 32/32/31 8/8/8
f 7/7/7 29/29/28 32/32/31
f 48/53/48 24/47/43 22/22/22
f 44/48/44 24/47/43 45/50/45
f 49/54/49 38/38/37 3/39/3
f 8/8/8 32/32/31 49/54/49
f 33/33/32 46/51/46 21/21/21
f 29/29/28 46/51/46 33/33/32
f 3/39/3 8/8/8 49/54/49
f 9/55/9 8/56/8 3/3/3
f 6/6/6 5/5/5 23/25/24
f 46/51/46 6/6/6 48/53/48
f 28/28/27 50/57/50 46/51/46
f 6/6/6 46/51/46 50/57/50
f 39/40/38 36/36/35 25/42/23
f 17/23/17 25/24/23 36/58/35
f 10/10/10 31/31/30 13/13/13
f 48/53/48 23/25/24 24/47/43
f 46/51/46 48/53/48 21/21/21
f 19/59/19 2/2/2 17/23/17
f 19/19/19 16/16/16 2/49/2
f 13/13/13 31/31/30 30/30/29
f 11/11/11 13/13/13 30/30/29
f 1/1/1 3/3/3 47/60/47
f 12/12/12 1/43/1 47/52/47
f 14/14/14 50/57/50 28/28/27
f 50/57/50 14/14/14 15/15/15
f 24/47/43 44/48/44 22/22/22
f 44/48/44 42/45/41 22/22/22
f 4/4/4 6/6/6 15/15/15
f 6/6/6 50/57/50 15/15/15
f 43/46/42 34/34/33 20/20/20
f 22/22/22 43/46/42 20/20/20
f 41/44/40 7/7/7 9/9/9
f 28/28/27 41/44/40 2/49/2
f 45/50/45 27/27/26 11/11/11
f 45/50/45 24/47/43 27/27/26
f 2/2/2 9/55/9 3/3/3
f 2/49/2 41/44/40 9/9/9
f 26/26/25 40/41/39 39/40/38
f 26/26/25 39/40/38 12/12/12
f 5/5/5 26/26/25 23/25/24
f 31/31/30 49/54/49 32/32/31
f 12/12/12 38/38/37 10/10/10
f 37/37/36 40/41/39 5/5/5
f 36/36/35 40/41/39 37/37/36
f 21/21/21 48/53/48 22/22/22
f 38/38/37 49/54/49 31/31/30
f 10/10/10 38/38/37 31/31/30
f 6/6/6 23/25/24 48/53/48
